<?xml version="1.0" encoding="UTF-8" standalone="no"?><svg xmlns="http://www.w3.org/2000/svg" xmlns:xlink="http://www.w3.org/1999/xlink" contentStyleType="text/css" height="547px" preserveAspectRatio="none" style="width:469px;height:547px;background:#FFFFFF;" version="1.1" viewBox="0 0 469 547" width="469px" zoomAndPan="magnify"><defs/><g><ellipse cx="229.5" cy="20" fill="#222222" rx="10" ry="10" style="stroke:#222222;stroke-width:1.0;"/><rect fill="#F1F1F1" height="34.1328" rx="12.5" ry="12.5" style="stroke:#181818;stroke-width:0.5;" width="69" x="195" y="50"/><text fill="#000000" font-family="sans-serif" font-size="12" lengthAdjust="spacing" textLength="49" x="205" y="71.6016">解析 SQL</text><polygon fill="#F1F1F1" points="35,104.1328,59,104.1328,71,116.1328,59,128.1328,35,128.1328,23,116.1328,35,104.1328" style="stroke:#181818;stroke-width:0.5;"/><text fill="#000000" font-family="sans-serif" font-size="11" lengthAdjust="spacing" textLength="18" x="51" y="138.7676">yes</text><text fill="#000000" font-family="sans-serif" font-size="11" lengthAdjust="spacing" textLength="22" x="36" y="120.29">DDL</text><rect fill="#F1F1F1" height="34.1328" rx="12.5" ry="12.5" style="stroke:#181818;stroke-width:0.5;" width="72" x="11" y="160.2676"/><text fill="#000000" font-family="sans-serif" font-size="12" lengthAdjust="spacing" textLength="52" x="21" y="181.8691">执行 DDL</text><polygon fill="#F1F1F1" points="116.5,104.1328,140.5,104.1328,152.5,116.1328,140.5,128.1328,116.5,128.1328,104.5,116.1328,116.5,104.1328" style="stroke:#181818;stroke-width:0.5;"/><text fill="#000000" font-family="sans-serif" font-size="11" lengthAdjust="spacing" textLength="18" x="132.5" y="138.7676">yes</text><text fill="#000000" font-family="sans-serif" font-size="11" lengthAdjust="spacing" textLength="22" x="117.5" y="120.29">DCL</text><rect fill="#F1F1F1" height="34.1328" rx="12.5" ry="12.5" style="stroke:#181818;stroke-width:0.5;" width="71" x="93" y="160.2676"/><text fill="#000000" font-family="sans-serif" font-size="12" lengthAdjust="spacing" textLength="51" x="103" y="181.8691">执行 DCL</text><polygon fill="#F1F1F1" points="257.5,104.1328,321.5,104.1328,333.5,116.1328,321.5,128.1328,257.5,128.1328,245.5,116.1328,257.5,104.1328" style="stroke:#181818;stroke-width:0.5;"/><text fill="#000000" font-family="sans-serif" font-size="11" lengthAdjust="spacing" textLength="18" x="293.5" y="138.7676">yes</text><text fill="#000000" font-family="sans-serif" font-size="11" lengthAdjust="spacing" textLength="64" x="257.5" y="120.29">DML or DQL</text><rect fill="#F1F1F1" height="34.1328" rx="12.5" ry="12.5" style="stroke:#181818;stroke-width:0.5;" width="92" x="243.5" y="160.2676"/><text fill="#000000" font-family="sans-serif" font-size="12" lengthAdjust="spacing" textLength="72" x="253.5" y="181.8691">生成逻辑计划</text><rect fill="#F1F1F1" height="34.1328" rx="12.5" ry="12.5" style="stroke:#181818;stroke-width:0.5;" width="92" x="243.5" y="214.4004"/><text fill="#000000" font-family="sans-serif" font-size="12" lengthAdjust="spacing" textLength="72" x="253.5" y="236.002">生成物理计划</text><rect fill="#F1F1F1" height="34.1328" rx="12.5" ry="12.5" style="stroke:#181818;stroke-width:0.5;" width="67" x="256" y="268.5332"/><text fill="#000000" font-family="sans-serif" font-size="12" lengthAdjust="spacing" textLength="47" x="266" y="290.1348">生成 Job</text><polygon fill="#F1F1F1" points="267.5,322.6885,311.5,322.6885,323.5,334.6885,311.5,346.6885,267.5,346.6885,255.5,334.6885,267.5,322.6885" style="stroke:#181818;stroke-width:0.5;"/><text fill="#000000" font-family="sans-serif" font-size="11" lengthAdjust="spacing" textLength="44" x="267.5" y="338.8457">EXPLAIN</text><text fill="#000000" font-family="sans-serif" font-size="11" lengthAdjust="spacing" textLength="18" x="237.5" y="332.3682">yes</text><text fill="#000000" font-family="sans-serif" font-size="11" lengthAdjust="spacing" textLength="14" x="323.5" y="332.3682">no</text><rect fill="#F1F1F1" height="34.1328" rx="12.5" ry="12.5" style="stroke:#181818;stroke-width:0.5;" width="118" x="174" y="356.6885"/><text fill="#000000" font-family="sans-serif" font-size="12" lengthAdjust="spacing" textLength="98" x="184" y="378.29">返回 Explain 结果</text><rect fill="#F1F1F1" height="34.1328" rx="12.5" ry="12.5" style="stroke:#181818;stroke-width:0.5;" width="67" x="312.5" y="356.6885"/><text fill="#000000" font-family="sans-serif" font-size="12" lengthAdjust="spacing" textLength="47" x="322.5" y="378.29">执行 Job</text><rect fill="#F1F1F1" height="34.1328" rx="12.5" ry="12.5" style="stroke:#181818;stroke-width:0.5;" width="68" x="312" y="410.8213"/><text fill="#000000" font-family="sans-serif" font-size="12" lengthAdjust="spacing" textLength="48" x="322" y="432.4229">返回结果</text><polygon fill="#F1F1F1" points="289.5,450.9541,301.5,462.9541,289.5,474.9541,277.5,462.9541,289.5,450.9541" style="stroke:#181818;stroke-width:0.5;"/><rect fill="#F1F1F1" height="34.1328" rx="12.5" ry="12.5" style="stroke:#181818;stroke-width:0.5;" width="68" x="390" y="268.5557"/><text fill="#000000" font-family="sans-serif" font-size="12" lengthAdjust="spacing" textLength="48" x="400" y="290.1572">返回错误</text><ellipse cx="424" cy="333.7109" fill="none" rx="11" ry="11" style="stroke:#222222;stroke-width:1.0;"/><ellipse cx="424" cy="333.7109" fill="#222222" rx="6" ry="6" style="stroke:#111111;stroke-width:1.0;"/><ellipse cx="229.5" cy="525.9541" fill="none" rx="11" ry="11" style="stroke:#222222;stroke-width:1.0;"/><ellipse cx="229.5" cy="525.9541" fill="#222222" rx="6" ry="6" style="stroke:#111111;stroke-width:1.0;"/><line style="stroke:#181818;stroke-width:1.0;" x1="229.5" x2="229.5" y1="30" y2="50"/><polygon fill="#181818" points="225.5,40,229.5,50,233.5,40,229.5,44" style="stroke:#181818;stroke-width:1.0;"/><line style="stroke:#181818;stroke-width:1.0;" x1="289.5" x2="289.5" y1="194.4004" y2="214.4004"/><polygon fill="#181818" points="285.5,204.4004,289.5,214.4004,293.5,204.4004,289.5,208.4004" style="stroke:#181818;stroke-width:1.0;"/><line style="stroke:#181818;stroke-width:1.0;" x1="289.5" x2="289.5" y1="248.5332" y2="268.5332"/><polygon fill="#181818" points="285.5,258.5332,289.5,268.5332,293.5,258.5332,289.5,262.5332" style="stroke:#181818;stroke-width:1.0;"/><line style="stroke:#181818;stroke-width:1.0;" x1="346" x2="346" y1="390.8213" y2="410.8213"/><polygon fill="#181818" points="342,400.8213,346,410.8213,350,400.8213,346,404.8213" style="stroke:#181818;stroke-width:1.0;"/><line style="stroke:#181818;stroke-width:1.0;" x1="255.5" x2="233" y1="334.6885" y2="334.6885"/><line style="stroke:#181818;stroke-width:1.0;" x1="233" x2="233" y1="334.6885" y2="356.6885"/><polygon fill="#181818" points="229,346.6885,233,356.6885,237,346.6885,233,350.6885" style="stroke:#181818;stroke-width:1.0;"/><line style="stroke:#181818;stroke-width:1.0;" x1="323.5" x2="346" y1="334.6885" y2="334.6885"/><line style="stroke:#181818;stroke-width:1.0;" x1="346" x2="346" y1="334.6885" y2="356.6885"/><polygon fill="#181818" points="342,346.6885,346,356.6885,350,346.6885,346,350.6885" style="stroke:#181818;stroke-width:1.0;"/><line style="stroke:#181818;stroke-width:1.0;" x1="233" x2="233" y1="390.8213" y2="462.9541"/><line style="stroke:#181818;stroke-width:1.0;" x1="233" x2="277.5" y1="462.9541" y2="462.9541"/><polygon fill="#181818" points="267.5,458.9541,277.5,462.9541,267.5,466.9541,271.5,462.9541" style="stroke:#181818;stroke-width:1.0;"/><line style="stroke:#181818;stroke-width:1.0;" x1="346" x2="346" y1="444.9541" y2="462.9541"/><line style="stroke:#181818;stroke-width:1.0;" x1="346" x2="301.5" y1="462.9541" y2="462.9541"/><polygon fill="#181818" points="311.5,458.9541,301.5,462.9541,311.5,466.9541,307.5,462.9541" style="stroke:#181818;stroke-width:1.0;"/><line style="stroke:#181818;stroke-width:1.0;" x1="289.5" x2="289.5" y1="302.666" y2="322.6885"/><polygon fill="#181818" points="285.5,312.6885,289.5,322.6885,293.5,312.6885,289.5,316.6885" style="stroke:#181818;stroke-width:1.0;"/><line style="stroke:#181818;stroke-width:1.0;" x1="424" x2="424" y1="302.6885" y2="322.7109"/><polygon fill="#181818" points="420,312.7109,424,322.7109,428,312.7109,424,316.7109" style="stroke:#181818;stroke-width:1.0;"/><line style="stroke:#181818;stroke-width:1.0;" x1="47" x2="47" y1="128.1328" y2="160.2676"/><polygon fill="#181818" points="43,150.2676,47,160.2676,51,150.2676,47,154.2676" style="stroke:#181818;stroke-width:1.0;"/><line style="stroke:#181818;stroke-width:1.0;" x1="47" x2="47" y1="194.4004" y2="494.9541"/><polygon fill="#181818" points="43,484.9541,47,494.9541,51,484.9541,47,488.9541" style="stroke:#181818;stroke-width:1.0;"/><line style="stroke:#181818;stroke-width:1.0;" x1="128.5" x2="128.5" y1="128.1328" y2="160.2676"/><polygon fill="#181818" points="124.5,150.2676,128.5,160.2676,132.5,150.2676,128.5,154.2676" style="stroke:#181818;stroke-width:1.0;"/><line style="stroke:#181818;stroke-width:1.0;" x1="128.5" x2="128.5" y1="194.4004" y2="494.9541"/><polygon fill="#181818" points="124.5,484.9541,128.5,494.9541,132.5,484.9541,128.5,488.9541" style="stroke:#181818;stroke-width:1.0;"/><line style="stroke:#181818;stroke-width:1.0;" x1="289.5" x2="289.5" y1="128.1328" y2="160.2676"/><polygon fill="#181818" points="285.5,150.2676,289.5,160.2676,293.5,150.2676,289.5,154.2676" style="stroke:#181818;stroke-width:1.0;"/><line style="stroke:#181818;stroke-width:1.0;" x1="289.5" x2="289.5" y1="474.9541" y2="494.9541"/><polygon fill="#181818" points="285.5,484.9541,289.5,494.9541,293.5,484.9541,289.5,488.9541" style="stroke:#181818;stroke-width:1.0;"/><line style="stroke:#181818;stroke-width:1.0;" x1="71" x2="104.5" y1="116.1328" y2="116.1328"/><polygon fill="#181818" points="94.5,112.1328,104.5,116.1328,94.5,120.1328,98.5,116.1328" style="stroke:#181818;stroke-width:1.0;"/><line style="stroke:#181818;stroke-width:1.0;" x1="152.5" x2="245.5" y1="116.1328" y2="116.1328"/><polygon fill="#181818" points="235.5,112.1328,245.5,116.1328,235.5,120.1328,239.5,116.1328" style="stroke:#181818;stroke-width:1.0;"/><line style="stroke:#181818;stroke-width:1.0;" x1="229.5" x2="229.5" y1="84.1328" y2="89.1328"/><line style="stroke:#181818;stroke-width:1.0;" x1="229.5" x2="47" y1="89.1328" y2="89.1328"/><line style="stroke:#181818;stroke-width:1.0;" x1="47" x2="47" y1="89.1328" y2="104.1328"/><polygon fill="#181818" points="43,94.1328,47,104.1328,51,94.1328,47,98.1328" style="stroke:#181818;stroke-width:1.0;"/><line style="stroke:#181818;stroke-width:1.0;" x1="333.5" x2="424" y1="116.1328" y2="116.1328"/><line style="stroke:#181818;stroke-width:1.0;" x1="424" x2="424" y1="116.1328" y2="268.5557"/><polygon fill="#181818" points="420,258.5557,424,268.5557,428,258.5557,424,262.5557" style="stroke:#181818;stroke-width:1.0;"/><line style="stroke:#181818;stroke-width:1.0;" x1="47" x2="289.5" y1="494.9541" y2="494.9541"/><line style="stroke:#181818;stroke-width:1.0;" x1="229.5" x2="229.5" y1="494.9541" y2="514.9541"/><polygon fill="#181818" points="225.5,504.9541,229.5,514.9541,233.5,504.9541,229.5,508.9541" style="stroke:#181818;stroke-width:1.0;"/><!--SRC=[Aov9B2hXidgnVF6pUHCKWWDzhBaoqnGqN5nyD1LACbBp53GgKuirkHI0mEfPv_8N2tiKW7BMNAavnQbWXSvu53eZA_JrKSWlKd09nAB- -PJvppecl6pO_MBVn1Vh5Zxjc6IDBF6yS-Np2MrO91IyyfCW0Y0RN2C2V1mz_J2C1sjuiN_Aqzdp55mh2d8IC_CKdk-U_6pU78XUa0iLDFBoaLH3FG0t7ia859rvAPbfO1zo8QbuEMNcY_Nh8IgAI_8Bk23AG4m0]--></g></svg>